<mxfile host="65bd71144e">
    <diagram name="Service Cluster IP" id="ekNrb9j8KYPwNMEWoziI">
        <mxGraphModel dx="3038" dy="790" grid="1" gridSize="10" guides="1" tooltips="1" connect="1" arrows="1" fold="1" page="1" pageScale="1" pageWidth="850" pageHeight="1100" math="0" shadow="0">
            <root>
                <mxCell id="4nMl1qcML9K_8VRpvYZr-0"/>
                <mxCell id="4nMl1qcML9K_8VRpvYZr-1" parent="4nMl1qcML9K_8VRpvYZr-0"/>
                <mxCell id="4nMl1qcML9K_8VRpvYZr-2" value="" style="rounded=1;whiteSpace=wrap;html=1;fillColor=#f5f5f5;fontColor=#333333;strokeColor=#666666;" parent="4nMl1qcML9K_8VRpvYZr-1" vertex="1">
                    <mxGeometry x="-1430" y="180" width="240" height="280" as="geometry"/>
                </mxCell>
                <mxCell id="4nMl1qcML9K_8VRpvYZr-3" value="" style="sketch=0;html=1;dashed=0;whitespace=wrap;fillColor=#2875E2;strokeColor=#ffffff;points=[[0.005,0.63,0],[0.1,0.2,0],[0.9,0.2,0],[0.5,0,0],[0.995,0.63,0],[0.72,0.99,0],[0.5,1,0],[0.28,0.99,0]];shape=mxgraph.kubernetes.icon;prIcon=svc" parent="4nMl1qcML9K_8VRpvYZr-1" vertex="1">
                    <mxGeometry x="-1335" y="260" width="50" height="48" as="geometry"/>
                </mxCell>
                <mxCell id="4nMl1qcML9K_8VRpvYZr-4" value="" style="sketch=0;html=1;dashed=0;whitespace=wrap;fillColor=#2875E2;strokeColor=#ffffff;points=[[0.005,0.63,0],[0.1,0.2,0],[0.9,0.2,0],[0.5,0,0],[0.995,0.63,0],[0.72,0.99,0],[0.5,1,0],[0.28,0.99,0]];shape=mxgraph.kubernetes.icon;prIcon=pod" parent="4nMl1qcML9K_8VRpvYZr-1" vertex="1">
                    <mxGeometry x="-1410" y="350" width="50" height="48" as="geometry"/>
                </mxCell>
                <mxCell id="4nMl1qcML9K_8VRpvYZr-5" value="" style="sketch=0;html=1;dashed=0;whitespace=wrap;fillColor=#2875E2;strokeColor=#ffffff;points=[[0.005,0.63,0],[0.1,0.2,0],[0.9,0.2,0],[0.5,0,0],[0.995,0.63,0],[0.72,0.99,0],[0.5,1,0],[0.28,0.99,0]];shape=mxgraph.kubernetes.icon;prIcon=pod" parent="4nMl1qcML9K_8VRpvYZr-1" vertex="1">
                    <mxGeometry x="-1335" y="350" width="50" height="48" as="geometry"/>
                </mxCell>
                <mxCell id="4nMl1qcML9K_8VRpvYZr-6" value="" style="sketch=0;html=1;dashed=0;whitespace=wrap;fillColor=#2875E2;strokeColor=#ffffff;points=[[0.005,0.63,0],[0.1,0.2,0],[0.9,0.2,0],[0.5,0,0],[0.995,0.63,0],[0.72,0.99,0],[0.5,1,0],[0.28,0.99,0]];shape=mxgraph.kubernetes.icon;prIcon=pod" parent="4nMl1qcML9K_8VRpvYZr-1" vertex="1">
                    <mxGeometry x="-1260" y="350" width="50" height="48" as="geometry"/>
                </mxCell>
                <mxCell id="4nMl1qcML9K_8VRpvYZr-7" value="" style="endArrow=classic;html=1;entryX=0.5;entryY=0;entryDx=0;entryDy=0;entryPerimeter=0;" parent="4nMl1qcML9K_8VRpvYZr-1" target="4nMl1qcML9K_8VRpvYZr-3" edge="1">
                    <mxGeometry width="50" height="50" relative="1" as="geometry">
                        <mxPoint x="-1310" y="220" as="sourcePoint"/>
                        <mxPoint x="-860" y="260" as="targetPoint"/>
                    </mxGeometry>
                </mxCell>
                <mxCell id="4nMl1qcML9K_8VRpvYZr-8" value="" style="endArrow=classic;html=1;exitX=0.5;exitY=1;exitDx=0;exitDy=0;exitPerimeter=0;entryX=0.5;entryY=0;entryDx=0;entryDy=0;entryPerimeter=0;" parent="4nMl1qcML9K_8VRpvYZr-1" source="4nMl1qcML9K_8VRpvYZr-3" target="4nMl1qcML9K_8VRpvYZr-5" edge="1">
                    <mxGeometry width="50" height="50" relative="1" as="geometry">
                        <mxPoint x="-1000" y="490" as="sourcePoint"/>
                        <mxPoint x="-950" y="440" as="targetPoint"/>
                    </mxGeometry>
                </mxCell>
                <mxCell id="4nMl1qcML9K_8VRpvYZr-9" value="" style="endArrow=classic;startArrow=classic;html=1;exitX=0.5;exitY=0;exitDx=0;exitDy=0;exitPerimeter=0;entryX=0.5;entryY=0;entryDx=0;entryDy=0;entryPerimeter=0;" parent="4nMl1qcML9K_8VRpvYZr-1" source="4nMl1qcML9K_8VRpvYZr-4" target="4nMl1qcML9K_8VRpvYZr-6" edge="1">
                    <mxGeometry width="50" height="50" relative="1" as="geometry">
                        <mxPoint x="-1380" y="520" as="sourcePoint"/>
                        <mxPoint x="-1330" y="470" as="targetPoint"/>
                        <Array as="points">
                            <mxPoint x="-1385" y="320"/>
                            <mxPoint x="-1310" y="320"/>
                            <mxPoint x="-1235" y="320"/>
                        </Array>
                    </mxGeometry>
                </mxCell>
                <mxCell id="4nMl1qcML9K_8VRpvYZr-10" value="172.17.0.1" style="text;html=1;strokeColor=none;fillColor=none;align=center;verticalAlign=middle;whiteSpace=wrap;rounded=0;" parent="4nMl1qcML9K_8VRpvYZr-1" vertex="1">
                    <mxGeometry x="-1412.5" y="400" width="55" height="20" as="geometry"/>
                </mxCell>
                <mxCell id="4nMl1qcML9K_8VRpvYZr-11" value="172.17.0.2" style="text;html=1;strokeColor=none;fillColor=none;align=center;verticalAlign=middle;whiteSpace=wrap;rounded=0;" parent="4nMl1qcML9K_8VRpvYZr-1" vertex="1">
                    <mxGeometry x="-1337.5" y="400" width="55" height="20" as="geometry"/>
                </mxCell>
                <mxCell id="4nMl1qcML9K_8VRpvYZr-12" value="172.17.0.3" style="text;html=1;strokeColor=none;fillColor=none;align=center;verticalAlign=middle;whiteSpace=wrap;rounded=0;" parent="4nMl1qcML9K_8VRpvYZr-1" vertex="1">
                    <mxGeometry x="-1262.5" y="400" width="55" height="20" as="geometry"/>
                </mxCell>
                <mxCell id="4nMl1qcML9K_8VRpvYZr-13" value="Kubernetes Cluster" style="text;html=1;strokeColor=none;fillColor=none;align=center;verticalAlign=middle;whiteSpace=wrap;rounded=0;" parent="4nMl1qcML9K_8VRpvYZr-1" vertex="1">
                    <mxGeometry x="-1367.5" y="430" width="115" height="30" as="geometry"/>
                </mxCell>
                <mxCell id="4nMl1qcML9K_8VRpvYZr-14" value="Traffic" style="text;html=1;strokeColor=none;fillColor=none;align=center;verticalAlign=middle;whiteSpace=wrap;rounded=0;" parent="4nMl1qcML9K_8VRpvYZr-1" vertex="1">
                    <mxGeometry x="-1339" y="190" width="60" height="30" as="geometry"/>
                </mxCell>
                <mxCell id="4nMl1qcML9K_8VRpvYZr-15" value="10.96.1.0" style="text;html=1;strokeColor=none;fillColor=none;align=center;verticalAlign=middle;whiteSpace=wrap;rounded=0;" parent="4nMl1qcML9K_8VRpvYZr-1" vertex="1">
                    <mxGeometry x="-1285" y="269" width="60" height="30" as="geometry"/>
                </mxCell>
            </root>
        </mxGraphModel>
    </diagram>
</mxfile>